<svg width="25" height="18" viewBox="0 0 25 18" fill="none" xmlns="http://www.w3.org/2000/svg">
<mask id="path-1-inside-1_357_368" fill="white">
<path d="M15.0361 2C15.1368 1.9999 15.2358 2.02646 15.3213 2.07715C15.4068 2.12791 15.476 2.2009 15.5205 2.28711L16.9424 5.04199H19.0625C19.6181 5.04199 20.1509 5.25304 20.5439 5.62793C20.937 6.00292 21.1587 6.51146 21.1592 7.04199V15.999C21.1586 16.5294 20.9376 17.038 20.5449 17.4131C20.1519 17.7883 19.6183 17.9996 19.0625 18H2.09668C1.54087 17.9996 1.00728 17.7883 0.614258 17.4131C0.221491 17.038 0.000578481 16.5294 0 15.999V7.04199C0.000453608 6.51157 0.221335 6.0029 0.614258 5.62793C1.00733 5.25294 1.54102 5.04199 2.09668 5.04199H4.21777L5.63867 2.28906C5.68306 2.20262 5.75143 2.12919 5.83691 2.07812C5.9225 2.02702 6.0221 2.00024 6.12305 2H15.0361ZM10.5801 7.3125C8.29371 7.3125 6.44057 9.09568 6.44043 11.2959C6.44043 13.4962 8.29362 15.2803 10.5801 15.2803C12.8665 15.2802 14.7197 13.4962 14.7197 11.2959C14.7196 9.0957 12.8664 7.31254 10.5801 7.3125Z"/>
</mask>
<path d="M15.0361 2C15.1368 1.9999 15.2358 2.02646 15.3213 2.07715C15.4068 2.12791 15.476 2.2009 15.5205 2.28711L16.9424 5.04199H19.0625C19.6181 5.04199 20.1509 5.25304 20.5439 5.62793C20.937 6.00292 21.1587 6.51146 21.1592 7.04199V15.999C21.1586 16.5294 20.9376 17.038 20.5449 17.4131C20.1519 17.7883 19.6183 17.9996 19.0625 18H2.09668C1.54087 17.9996 1.00728 17.7883 0.614258 17.4131C0.221491 17.038 0.000578481 16.5294 0 15.999V7.04199C0.000453608 6.51157 0.221335 6.0029 0.614258 5.62793C1.00733 5.25294 1.54102 5.04199 2.09668 5.04199H4.21777L5.63867 2.28906C5.68306 2.20262 5.75143 2.12919 5.83691 2.07812C5.9225 2.02702 6.0221 2.00024 6.12305 2H15.0361ZM10.5801 7.3125C8.29371 7.3125 6.44057 9.09568 6.44043 11.2959C6.44043 13.4962 8.29362 15.2803 10.5801 15.2803C12.8665 15.2802 14.7197 13.4962 14.7197 11.2959C14.7196 9.0957 12.8664 7.31254 10.5801 7.3125Z" fill="#999999"/>
<path d="M15.0361 2V3L15.0371 3L15.0361 2ZM15.3213 2.07715L15.8319 1.21731L15.8312 1.2169L15.3213 2.07715ZM15.5205 2.28711L14.6319 2.74571L14.6319 2.74575L15.5205 2.28711ZM16.9424 5.04199L16.0538 5.50064L16.3332 6.04199H16.9424V5.04199ZM19.0625 5.04199V6.04199V5.04199ZM20.5439 5.62793L21.2342 4.90438L21.2341 4.9043L20.5439 5.62793ZM21.1592 7.04199H22.1592V7.04114L21.1592 7.04199ZM21.1592 15.999L22.1592 16.0001V15.999H21.1592ZM20.5449 17.4131L21.2355 18.1364L21.2357 18.1362L20.5449 17.4131ZM19.0625 18V19H19.0633L19.0625 18ZM2.09668 18L2.0959 19H2.09668V18ZM0.614258 17.4131L-0.0764163 18.1363L-0.0763073 18.1364L0.614258 17.4131ZM0 15.999H-1L-0.999999 16.0001L0 15.999ZM0 7.04199L-1 7.04114V7.04199H0ZM0.614258 5.62793L-0.0760122 4.90438L-0.0761249 4.90449L0.614258 5.62793ZM2.09668 5.04199L2.09668 6.04199H2.09668V5.04199ZM4.21777 5.04199V6.04199H4.82698L5.10639 5.50064L4.21777 5.04199ZM5.63867 2.28906L6.52729 2.74771L6.52821 2.74591L5.63867 2.28906ZM5.83691 2.07812L5.32421 1.21956L5.32407 1.21964L5.83691 2.07812ZM6.12305 2V0.999997L6.12067 1L6.12305 2ZM10.5801 7.3125L10.5801 6.3125H10.5801V7.3125ZM6.44043 11.2959L5.44043 11.2958V11.2959H6.44043ZM10.5801 15.2803V16.2803H10.5801L10.5801 15.2803ZM14.7197 11.2959H15.7197V11.2958L14.7197 11.2959ZM15.0361 2L15.0371 3C14.9627 3.00007 14.8845 2.98069 14.8114 2.9374L15.3213 2.07715L15.8312 1.2169C15.5871 1.07223 15.3109 0.999727 15.0351 1L15.0361 2ZM15.3213 2.07715L14.8107 2.93699C14.7392 2.89452 14.6755 2.83025 14.6319 2.74571L15.5205 2.28711L16.4092 1.82851C16.2765 1.57155 16.0743 1.36129 15.8319 1.21731L15.3213 2.07715ZM15.5205 2.28711L14.6319 2.74575L16.0538 5.50064L16.9424 5.04199L17.831 4.58335L16.4091 1.82847L15.5205 2.28711ZM16.9424 5.04199V6.04199H19.0625V5.04199V4.04199H16.9424V5.04199ZM19.0625 5.04199V6.04199C19.367 6.04199 19.6509 6.15812 19.8538 6.35156L20.5439 5.62793L21.2341 4.9043C20.6508 4.34796 19.8692 4.04199 19.0625 4.04199V5.04199ZM20.5439 5.62793L19.8537 6.35148C20.0552 6.54369 20.159 6.79359 20.1592 7.04285L21.1592 7.04199L22.1592 7.04114C22.1585 6.22934 21.8189 5.46214 21.2342 4.90438L20.5439 5.62793ZM21.1592 7.04199H20.1592V15.999H21.1592H22.1592V7.04199H21.1592ZM21.1592 15.999L20.1592 15.9979C20.1589 16.2481 20.055 16.4981 19.8542 16.69L20.5449 17.4131L21.2357 18.1362C21.8202 17.5778 22.1583 16.8107 22.1592 16.0001L21.1592 15.999ZM20.5449 17.4131L19.8544 16.6898C19.6519 16.8831 19.3672 16.9998 19.0617 17L19.0625 18L19.0633 19C19.8695 18.9994 20.6519 18.6935 21.2355 18.1364L20.5449 17.4131ZM19.0625 18V17H2.09668V18V19H19.0625V18ZM2.09668 18L2.09746 17C1.79201 16.9998 1.5073 16.8831 1.30482 16.6898L0.614258 17.4131L-0.0763073 18.1364C0.507253 18.6935 1.28972 18.9994 2.0959 19L2.09668 18ZM0.614258 17.4131L1.30493 16.6899C1.1041 16.4981 1.00027 16.2482 0.999999 15.9979L0 15.999L-0.999999 16.0001C-0.999115 16.8106 -0.661121 17.5778 -0.0764163 18.1363L0.614258 17.4131ZM0 15.999H1V7.04199H0H-1V15.999H0ZM0 7.04199L1 7.04285C1.00021 6.79258 1.10402 6.54283 1.30464 6.35137L0.614258 5.62793L-0.0761249 4.90449C-0.661352 5.46297 -0.999306 6.23055 -1 7.04114L0 7.04199ZM0.614258 5.62793L1.30453 6.35148C1.50692 6.1584 1.79157 6.04199 2.09668 6.04199L2.09668 5.04199L2.09668 4.04199C1.29048 4.04199 0.507729 4.34749 -0.0760122 4.90438L0.614258 5.62793ZM2.09668 5.04199V6.04199H4.21777V5.04199V4.04199H2.09668V5.04199ZM4.21777 5.04199L5.10639 5.50064L6.52729 2.74771L5.63867 2.28906L4.75006 1.83041L3.32916 4.58334L4.21777 5.04199ZM5.63867 2.28906L6.52821 2.74591C6.48723 2.82572 6.4252 2.89154 6.34976 2.93661L5.83691 2.07812L5.32407 1.21964C5.07767 1.36684 4.8789 1.57953 4.74913 1.83221L5.63867 2.28906ZM5.83691 2.07812L6.34962 2.93669C6.27522 2.98112 6.19748 2.99983 6.12543 3L6.12305 2L6.12067 1C5.84672 1.00065 5.56978 1.07292 5.32421 1.21956L5.83691 2.07812ZM6.12305 2V3H15.0361V2V1H6.12305V2ZM10.5801 7.3125V6.3125C7.778 6.3125 5.44061 8.5075 5.44043 11.2958L6.44043 11.2959L7.44043 11.296C7.44053 9.68386 8.80941 8.3125 10.5801 8.3125V7.3125ZM6.44043 11.2959H5.44043C5.44043 14.0842 7.77765 16.2803 10.5801 16.2803V15.2803V14.2803C8.80959 14.2803 7.44043 12.9083 7.44043 11.2959H6.44043ZM10.5801 15.2803L10.5801 16.2803C13.3825 16.2802 15.7197 14.0841 15.7197 11.2959H14.7197H13.7197C13.7197 12.9083 12.3505 14.2802 10.5801 14.2803L10.5801 15.2803ZM14.7197 11.2959L15.7197 11.2958C15.7195 8.5075 13.3821 6.31255 10.5801 6.3125L10.5801 7.3125L10.5801 8.3125C12.3507 8.31253 13.7196 9.6839 13.7197 11.296L14.7197 11.2959Z" fill="#999999" mask="url(#path-1-inside-1_357_368)"/>
<mask id="path-3-outside-2_357_368" maskUnits="userSpaceOnUse" x="13.64" y="0" width="11" height="11" fill="black">
<rect fill="white" x="13.64" width="11" height="11"/>
<path fill-rule="evenodd" clip-rule="evenodd" d="M19.32 2C18.9389 2 18.63 2.30892 18.63 2.69V4.87738H16.304C15.9373 4.87738 15.64 5.17467 15.64 5.54139C15.64 5.90811 15.9373 6.2054 16.304 6.2054H18.63V8.39278C18.63 8.77386 18.9389 9.08278 19.32 9.08278C19.7011 9.08278 20.01 8.77386 20.01 8.39278V6.2054H22.336C22.7027 6.2054 23 5.90811 23 5.54139C23 5.17467 22.7027 4.87738 22.336 4.87738H20.01V2.69C20.01 2.30892 19.7011 2 19.32 2Z"/>
</mask>
<path fill-rule="evenodd" clip-rule="evenodd" d="M19.32 2C18.9389 2 18.63 2.30892 18.63 2.69V4.87738H16.304C15.9373 4.87738 15.64 5.17467 15.64 5.54139C15.64 5.90811 15.9373 6.2054 16.304 6.2054H18.63V8.39278C18.63 8.77386 18.9389 9.08278 19.32 9.08278C19.7011 9.08278 20.01 8.77386 20.01 8.39278V6.2054H22.336C22.7027 6.2054 23 5.90811 23 5.54139C23 5.17467 22.7027 4.87738 22.336 4.87738H20.01V2.69C20.01 2.30892 19.7011 2 19.32 2Z" fill="white"/>
<path d="M18.63 4.87738V6.37738H20.13V4.87738H18.63ZM18.63 6.2054H20.13V4.7054H18.63V6.2054ZM20.01 6.2054V4.7054H18.51V6.2054H20.01ZM20.01 4.87738H18.51V6.37738H20.01V4.87738ZM18.63 2.69H20.13C20.13 3.13735 19.7674 3.5 19.32 3.5V2V0.5C18.1105 0.5 17.13 1.4805 17.13 2.69H18.63ZM18.63 4.87738H20.13V2.69H18.63H17.13V4.87738H18.63ZM16.304 4.87738V6.37738H18.63V4.87738V3.37738H16.304V4.87738ZM15.64 5.54139H17.14C17.14 6.00309 16.7657 6.37738 16.304 6.37738V4.87738V3.37738C15.1089 3.37738 14.14 4.34624 14.14 5.54139H15.64ZM16.304 6.2054V4.7054C16.7657 4.7054 17.14 5.07968 17.14 5.54139H15.64H14.14C14.14 6.73654 15.1089 7.7054 16.304 7.7054V6.2054ZM18.63 6.2054V4.7054H16.304V6.2054V7.7054H18.63V6.2054ZM18.63 8.39278H20.13V6.2054H18.63H17.13V8.39278H18.63ZM19.32 9.08278V7.58278C19.7674 7.58278 20.13 7.94543 20.13 8.39278H18.63H17.13C17.13 9.60228 18.1105 10.5828 19.32 10.5828V9.08278ZM20.01 8.39278H18.51C18.51 7.94543 18.8727 7.58278 19.32 7.58278V9.08278V10.5828C20.5295 10.5828 21.51 9.60228 21.51 8.39278H20.01ZM20.01 6.2054H18.51V8.39278H20.01H21.51V6.2054H20.01ZM22.336 6.2054V4.7054H20.01V6.2054V7.7054H22.336V6.2054ZM23 5.54139H21.5C21.5 5.07969 21.8743 4.7054 22.336 4.7054V6.2054V7.7054C23.5312 7.7054 24.5 6.73654 24.5 5.54139H23ZM22.336 4.87738V6.37738C21.8743 6.37738 21.5 6.0031 21.5 5.54139H23H24.5C24.5 4.34624 23.5312 3.37738 22.336 3.37738V4.87738ZM20.01 4.87738V6.37738H22.336V4.87738V3.37738H20.01V4.87738ZM20.01 2.69H18.51V4.87738H20.01H21.51V2.69H20.01ZM19.32 2V3.5C18.8727 3.5 18.51 3.13735 18.51 2.69H20.01H21.51C21.51 1.4805 20.5295 0.5 19.32 0.5V2Z" fill="#999999" mask="url(#path-3-outside-2_357_368)"/>
</svg>
