<svg width="16" height="16" viewBox="0 0 16 16" fill="none" xmlns="http://www.w3.org/2000/svg">
<path d="M14.44 6.96L13.7867 9.74666C13.2267 12.1533 12.12 13.1267 10.04 12.9267C9.70667 12.9 9.34667 12.84 8.96001 12.7467L7.84001 12.48C5.06001 11.82 4.20001 10.4467 4.85334 7.66L5.50667 4.86666C5.64001 4.3 5.80001 3.80666 6.00001 3.4C6.78001 1.78666 8.10667 1.35333 10.3333 1.88L11.4467 2.14C14.24 2.79333 15.0933 4.17333 14.44 6.96Z" stroke="#2E2E2E" stroke-width="1.5" stroke-linecap="round" stroke-linejoin="round"/>
<path d="M10.04 12.9267C9.62668 13.2067 9.10668 13.44 8.47335 13.6467L7.42001 13.9933C4.77335 14.8467 3.38001 14.1333 2.52001 11.4867L1.66668 8.85333C0.813347 6.20666 1.52001 4.80666 4.16668 3.95333L5.22001 3.60666C5.49335 3.51999 5.75335 3.44666 6.00001 3.39999C5.80001 3.80666 5.64001 4.29999 5.50668 4.86666L4.85335 7.65999C4.20001 10.4467 5.06001 11.82 7.84001 12.48L8.96001 12.7467C9.34668 12.84 9.70668 12.9 10.04 12.9267Z" stroke="#2E2E2E" stroke-width="1.5" stroke-linecap="round" stroke-linejoin="round"/>
<path d="M8.4267 5.68668L11.66 6.50668" stroke="#2E2E2E" stroke-width="1.5" stroke-linecap="round" stroke-linejoin="round"/>
<path d="M7.77332 8.26666L9.70665 8.76" stroke="#2E2E2E" stroke-width="1.5" stroke-linecap="round" stroke-linejoin="round"/>
</svg>
